<svg xmlns="http://www.w3.org/2000/svg" viewBox="0 0 81 81">
  <rect width="81" height="81" rx="18" fill="#775A0B" />
  <g transform="translate(0,12)">
    <path
      fill="#FFDF9C"
      fill-rule="evenodd"
      d="M36.408,0.317C36.882,0.043 37.505,-0.098 38.166,0.078C38.538,0.176 38.833,0.353 39.059,0.536C39.22,0.622 39.399,0.715 39.596,0.812L39.805,0.922C40.231,1.163 40.609,1.473 40.93,1.848C41.186,2.088 41.457,2.384 41.667,2.739C42.615,3.458 42.691,4.552 42.654,5.12L42.647,5.236L42.626,5.351C41.539,11.287 40.539,17.218 39.627,23.143C44.929,20.723 50.243,18.29 55.568,15.84V5.149C55.568,4.521 55.604,3.922 55.703,3.399C55.788,2.953 55.98,2.209 56.554,1.634L56.555,1.632C56.943,1.245 57.509,0.949 58.193,0.949C58.575,0.949 58.904,1.042 59.168,1.159C59.346,1.2 59.544,1.244 59.76,1.288C60.321,1.4 60.845,1.62 61.317,1.943C61.627,2.109 61.965,2.324 62.258,2.611C63.218,3.001 63.612,3.838 63.772,4.415L63.828,4.656L63.852,4.77L63.861,4.887C64.051,7.249 64.256,9.606 64.472,11.958C65.07,11.784 65.684,11.637 66.314,11.517C67.477,11.26 68.41,10.842 69.157,10.297L69.195,10.271L69.233,10.245C70.197,9.608 71.586,9.025 73.261,8.469C74.914,7.851 76.374,7.378 77.626,7.062L79.362,6.624L79.989,8.3C80.468,9.581 79.93,10.766 79.449,11.503L79.448,11.502C79.076,12.092 78.572,12.73 77.974,13.401C77.405,14.052 76.902,14.738 76.465,15.46L76.404,15.561L76.331,15.654C75.525,16.688 74.452,17.59 73.186,18.384L73.146,18.409L73.106,18.432C70.661,19.81 68.134,21.159 65.532,22.489C65.606,23.168 65.679,23.847 65.755,24.525C66.488,31.052 67.254,37.613 68.053,44.207C68.217,45.334 68.124,46.47 67.816,47.597L67.817,47.598C67.705,48.083 67.756,48.429 67.888,48.72L67.916,48.783L67.941,48.846C68.285,49.766 68.333,50.886 68.267,52.008C68.264,53.125 68.194,54.132 68.035,55.006L67.737,56.649H66.068C65.09,56.649 64.263,56.238 63.618,55.709C63.134,55.318 62.687,54.86 62.249,54.35C61.876,53.925 61.441,53.516 60.94,53.126L60.841,53.05L60.753,52.962C59.975,52.184 59.423,51.238 59.07,50.18L59.048,50.112L59.029,50.042C58.141,46.556 57.46,42.906 56.984,39.096L56.983,39.091C56.51,35.244 56.173,31.364 55.971,27.452C55.965,27.342 55.96,27.233 55.954,27.123C50.742,29.512 45.447,31.813 40.07,34.022C39.335,34.324 38.6,34.622 37.868,34.919C37.406,38.075 36.95,41.241 36.498,44.416L36.496,44.415C36.362,45.552 35.978,46.63 35.384,47.642C35.185,48.021 35.131,48.332 35.155,48.613L35.17,48.733L35.182,48.799L35.188,48.868C35.283,49.846 35.039,50.94 34.685,52.008C34.393,53.086 34.065,54.04 33.686,54.841L32.972,56.351L31.359,55.918C30.415,55.665 29.723,55.056 29.236,54.377C28.875,53.88 28.564,53.33 28.275,52.728C28.022,52.215 27.705,51.703 27.318,51.191L27.242,51.091L27.18,50.984C26.629,50.03 26.342,48.973 26.276,47.861L26.271,47.789L26.272,47.716C26.305,44.989 26.477,42.202 26.787,39.356C25.449,39.882 24.115,40.405 22.783,40.92L22.773,40.924L22.763,40.928C21.01,41.584 19.284,42.23 17.586,42.865C16.394,43.311 15.215,43.751 14.05,44.187C14.217,45.334 14.124,46.47 13.816,47.597L13.817,47.598C13.705,48.083 13.756,48.429 13.888,48.72L13.916,48.783L13.941,48.846C14.285,49.766 14.333,50.886 14.267,52.008C14.264,53.125 14.194,54.132 14.035,55.006L13.736,56.649H12.068C11.09,56.649 10.263,56.238 9.618,55.709C9.134,55.318 8.687,54.86 8.249,54.35C7.876,53.925 7.441,53.516 6.94,53.126L6.841,53.05L6.753,52.962C5.975,52.184 5.423,51.238 5.07,50.18L5.048,50.112L5.029,50.042C4.833,49.271 4.648,48.492 4.473,47.707C4.285,47.761 4.105,47.811 3.934,47.853C3.362,47.994 2.58,48.147 1.862,48.007C1.438,47.924 0.524,47.617 0.14,46.593C-0.053,46.078 -0.016,45.606 0.072,45.246C0.072,45.081 0.069,44.901 0.061,44.704C0.029,43.977 0.219,43.307 0.529,42.718C0.683,42.308 0.888,41.897 1.176,41.528C1.364,40.834 1.747,40.395 2.011,40.151C2.322,39.863 2.68,39.645 3.004,39.476L3.03,39.461C3.015,39.34 2.999,39.218 2.984,39.096L2.983,39.091C2.51,35.244 2.173,31.364 1.971,27.452C1.77,23.564 1.635,19.74 1.568,15.984V5.149C1.568,4.521 1.604,3.922 1.703,3.399C1.788,2.953 1.98,2.209 2.554,1.634L2.555,1.632C2.943,1.245 3.509,0.949 4.193,0.949C4.575,0.949 4.904,1.042 5.168,1.159C5.346,1.2 5.544,1.244 5.76,1.288C6.321,1.4 6.845,1.62 7.317,1.943C7.627,2.109 7.965,2.324 8.258,2.611C9.218,3.001 9.612,3.838 9.772,4.415L9.828,4.656L9.852,4.77L9.861,4.887C10.392,11.466 11.024,18.012 11.755,24.525C12.151,28.048 12.558,31.581 12.973,35.124C18.185,32.834 23.374,30.522 28.538,28.189C28.738,27.16 28.944,26.132 29.163,25.104C29.975,21.296 30.836,17.568 31.743,13.922L31.747,13.905L31.752,13.888C32.244,12.053 32.723,10.265 33.189,8.527C33.654,6.788 34.107,5.098 34.547,3.456C34.709,2.85 34.898,2.282 35.13,1.802C35.327,1.394 35.705,0.724 36.407,0.318L36.408,0.317Z"
    />
  </g>
</svg>
