<svg width="512" height="512" viewBox="0 0 512 512" fill="none" xmlns="http://www.w3.org/2000/svg">
<path d="M244.953 142.523C251.919 145.771 259.964 145.771 266.929 142.523L373.131 93.001L391.304 131.973L295.487 176.651C286.477 180.852 282.579 191.562 286.78 200.572L380.395 401.33L341.424 419.503L297.7 325.738C280.469 288.786 227.926 288.786 210.695 325.739L166.972 419.504L128 401.331L222.237 199.236C226.438 190.227 222.54 179.517 213.53 175.316L120.578 131.971L138.751 93L244.953 142.523Z" fill="#1C1E2A"/>
<path d="M283 351C283 367.016 270.016 380 254 380C237.984 380 225 367.016 225 351C225 334.984 237.984 322 254 322C270.016 322 283 334.984 283 351Z" fill="#1C1E2A"/>
</svg>
